<svg width="530" height="391" viewBox="0 0 530 391" fill="none" xmlns="http://www.w3.org/2000/svg">
<g clip-path="url(#clip0_103_6)">
<path d="M510.923 319.797H19.0767C8.55799 319.797 0 312.347 0 303.189V251.65H530V303.189C530 312.347 521.442 319.797 510.923 319.797Z" fill="#E6E6E6"/>
<path d="M328.657 311.177H203.229V389.176H328.657V311.177Z" fill="#E6E6E6"/>
<path d="M336.201 379.323H195.685V389.176H336.201V379.323Z" fill="#E6E6E6"/>
<path d="M529.528 273.409H0V11.3976C0 5.11311 5.87294 0 13.0914 0H516.437C523.655 0 529.528 5.11311 529.528 11.3976V273.409Z" fill="#3F3D56"/>
<path d="M516.797 11.9052H12.2598V259.04H516.797V11.9052Z" fill="white"/>
<path d="M109.97 159.204C113.831 156.426 118.608 155.909 120.638 158.049C122.668 160.189 121.183 164.175 117.32 166.953C115.794 168.081 113.98 168.875 112.03 169.268L95.4971 180.859L89.415 173.988L106.359 163.291C107.17 161.697 108.408 160.296 109.97 159.204H109.97Z" fill="#FFB6B6"/>
<path d="M14.4133 185.355C14.4049 184.843 14.4104 180.372 18.2125 177.545C22.58 174.299 28.7428 175.613 30.9044 176.074C35.8976 177.139 36.3071 179.003 40.9962 180.92C49.7691 184.504 38.777 182.67 43.9972 181.52C45.8041 181.122 71.7992 179.553 78.2699 176.085C90.8546 169.342 99.4293 165.252 99.4293 165.252L105.035 175.013C105.035 175.013 96.9293 184.825 85.5214 192.095C73.8195 199.551 67.9686 203.279 59.0767 204.72C58.311 204.844 39.4787 207.643 24.3108 197.778C20.8511 195.527 14.5121 191.404 14.4133 185.355L14.4133 185.355Z" fill="#712782"/>
<path d="M31.8018 160.532C42.5864 160.532 51.3291 152.921 51.3291 143.531C51.3291 134.142 42.5864 126.53 31.8018 126.53C21.0171 126.53 12.2744 134.142 12.2744 143.531C12.2744 152.921 21.0171 160.532 31.8018 160.532Z" fill="#FFB6B6"/>
<path d="M184.732 257.75L164.622 239.828L154.241 249.256L169.224 266.44L184.085 267.919L184.732 257.75Z" fill="#FFB6B6"/>
<path d="M69.9013 224.142C71.0775 224.227 74.8155 224.879 78.3883 223.168C80.8266 222 82.0771 220.263 82.4995 219.711C87.7393 212.859 107.851 202.175 125.901 201.518C129.988 201.369 132.679 201.781 135.124 202.891C138.592 204.465 139.976 206.719 144.377 211.999C146.784 214.888 149.447 217.609 151.883 220.479C166.144 237.282 171.551 238.601 170.998 243.988C170.385 249.964 162.981 255.635 158.06 254.98C156.045 254.712 155.265 253.492 152.572 251.022C144.678 243.781 141.412 245.119 135.791 239.572C129.229 233.097 130.088 227.727 126.665 227.52C123.49 227.327 122.14 231.908 115.362 237.993C112.261 240.777 110.052 242.055 103.324 246.118C77.1212 261.945 76.703 263.057 71.415 264.319C69.1014 264.871 52.6807 268.791 46.8311 262.553C37.6773 252.793 59.3025 223.375 69.9013 224.142V224.142Z" fill="#2F2E41"/>
<path d="M178.584 261.8C180.063 261.222 181.793 260.546 182.349 258.991C182.726 257.939 182.509 256.642 181.731 255.745C180.833 254.711 179.504 254.575 179.558 254.392C179.639 254.113 182.782 254.222 186.232 255.284C186.883 255.484 189.832 256.422 193.584 258.972C196.59 261.015 196.185 261.425 198.07 262.603C203.856 266.219 209.283 263.369 212.414 266.76C213.622 268.069 214.137 269.927 213.629 271.43C212.608 274.447 207.642 275.485 204.928 276.021C198.392 277.313 193.444 276.259 188.278 275.501C170.71 272.923 160.838 275.271 159.517 271.727C159.267 271.057 159.673 271.114 161.028 266.192C162.365 261.335 162.321 260.001 163.46 259.612C165.174 259.026 166.325 261.689 170.643 262.601C174.469 263.409 177.626 262.174 178.584 261.8H178.584Z" fill="#2F2E41"/>
<path d="M148.98 316.38L143.899 291.719L129.228 294.444L130.542 315.988L141.885 324.478L148.98 316.38Z" fill="#FFB6B6"/>
<path d="M75.6384 232.431C76.5568 233.077 79.2293 235.444 83.2894 235.774C86.0603 236 88.2151 235.174 88.9208 234.924C97.6756 231.816 121.208 232.808 136.568 241.088C140.046 242.963 142.006 244.62 143.314 246.734C145.168 249.731 144.86 252.273 145.095 258.794C145.223 262.361 145.672 265.914 145.836 269.48C146.8 290.356 150.422 294.09 146.491 298.278C142.129 302.923 132.345 303.996 128.695 301.048C127.201 299.841 127.342 298.45 126.707 295.09C124.845 285.239 121.28 284.749 120.207 277.412C118.954 268.845 123.128 264.823 120.428 262.977C117.925 261.266 113.855 264.396 104.321 266.118C99.9593 266.905 97.3079 266.882 89.1192 266.956C57.2303 267.241 56.1669 267.957 50.9773 266.416C48.7067 265.742 32.5914 260.957 31.7742 252.936C30.4954 240.385 67.3629 226.615 75.6384 232.431H75.6384Z" fill="#2F2E41"/>
<path d="M141.28 316.725C142.877 316.97 144.744 317.256 146.207 316.241C147.197 315.555 147.854 314.376 147.788 313.254C147.713 311.959 146.701 311.196 146.863 311.071C147.111 310.881 149.641 312.507 151.811 315.072C152.22 315.556 154.055 317.775 155.515 321.719C156.685 324.879 156.086 325.02 156.886 326.916C159.341 332.737 165.669 333.032 166.073 337.368C166.228 339.042 165.456 340.831 164.066 341.826C161.275 343.824 156.496 342.255 153.905 341.372C147.664 339.245 144.25 335.954 140.464 332.801C127.589 322.079 117.908 319.196 119.1 315.618C119.326 314.941 119.625 315.187 123.92 311.777C128.159 308.411 128.983 307.286 130.177 307.52C131.972 307.874 131.207 310.64 134.192 313.505C136.837 316.044 140.245 316.567 141.28 316.725V316.725Z" fill="#2F2E41"/>
<path d="M34.4643 146.781C35.2245 144.414 34.2697 143.551 35.2429 142.488C35.2429 142.488 35.6345 142.061 39.1358 140.907C38.1028 135.688 38.8763 134.806 38.8763 134.806C39.7677 133.789 41.5535 133.543 42.7692 133.676C45.3404 133.958 45.7955 135.981 47.4407 135.936C49.7134 135.873 52.4393 131.912 51.5932 128.479C50.903 125.679 47.9272 123.6 47.1812 123.96C46.4416 124.318 43.779 122.741 42.7692 123.057C42.0796 123.272 38.8337 122.985 38.0977 123.283C37.294 123.607 34.9921 125.629 34.7721 125.374C33.2428 123.604 33.2753 122.986 32.3881 122.605C30.8159 121.929 29.1066 123.178 26.1594 124.412C20.0954 126.952 18.3197 125.437 15.5187 127.576C14.1038 128.656 13.3451 130.721 11.8853 134.806C9.84391 140.519 8.82321 143.376 9.80912 146.103C10.8146 148.885 12.2952 148.28 14.4806 152.204C16.9133 156.573 16.0749 159.112 18.3736 160.112C20.1501 160.886 23.0052 160.393 24.0832 158.983C25.9288 156.567 21.1585 153.299 22.7855 149.493C23.7843 147.156 26.8653 145.384 28.7547 145.877C30.8911 146.435 31.0484 149.77 32.3881 149.719C33.5353 149.674 34.3318 147.194 34.4643 146.781H34.4643Z" fill="#2F2E41"/>
<path d="M19.6708 163.05C23.6668 159.149 39.9434 163.186 41.4712 169.376C42.0995 171.922 39.7798 172.997 40.433 175.929C41.3885 180.217 46.7985 179.924 50.8141 184.289C56.5151 190.486 50.642 196.543 57.0428 206.884C58.4106 209.094 59.5634 210.956 61.9738 212.759C67.5051 216.895 72.6528 215.476 75.4693 219.311C77.5755 222.179 76.7101 225.714 76.5074 226.542C75.6762 229.937 73.4233 230.764 71.8359 233.546C69.1948 238.175 72.1851 241.573 72.3549 247.103C72.5674 254.022 68.344 263.614 59.8976 266.761C50.4085 270.296 38.9639 264.441 33.4258 258.627C30.1212 255.157 29.1619 251.957 27.7162 248.007C21.255 230.353 17.6047 231.95 12.6636 217.956C7.01502 201.958 5.90458 183.215 12.6636 177.285C13.5595 176.498 16.0249 174.681 17.5946 171.41C19.7068 167.007 17.8821 164.796 19.6708 163.05L19.6708 163.05Z" fill="#712782"/>
<path d="M78.7157 253.855C81.8138 257.282 82.2941 261.451 79.7886 263.168C77.2831 264.884 72.7414 263.497 69.6427 260.068C68.3833 258.713 67.5149 257.115 67.1102 255.409L54.1938 240.744L60.8679 236.311L74.1079 250.615C75.919 251.359 77.499 252.47 78.7157 253.855H78.7157Z" fill="#FFB6B6"/>
<path d="M31.412 177.916C31.9866 177.804 37.0154 176.897 40.9689 179.56C45.5104 182.621 45.2904 188.141 45.2133 190.078C45.035 194.551 43.0217 195.28 41.8239 199.668C39.583 207.876 43.8506 215.505 46.2083 219.719C47.0244 221.178 49.6463 225.642 54.8655 230.45C65.016 239.8 74.073 244.72 74.073 244.72L64.3433 252.249C64.3433 252.249 48.845 248.137 38.3434 239.897C27.5712 231.445 11.0054 201.54 7.57129 194.256C7.27555 193.628 11.4647 203.827 19.4634 188.886C21.2879 185.478 24.6308 179.234 31.412 177.916H31.412Z" fill="#712782"/>
<path d="M280.433 170.902L268.816 166.111C273.581 171.9 277.686 180.941 279.885 188.136C283.606 181.434 289.606 173.234 295.544 168.336L283.266 171.086C290.832 138.804 319.288 115.629 351.874 115.629L352.335 114.463C318.298 114.463 288.158 137.317 280.433 170.902V170.902Z" fill="#3F3D56"/>
<path d="M333.902 220.088H260.501C257.387 220.088 254.854 217.883 254.854 215.172C254.854 212.462 257.387 210.257 260.501 210.257H333.902C337.015 210.257 339.548 212.462 339.548 215.172C339.548 217.883 337.015 220.088 333.902 220.088Z" fill="#712782"/>
<path d="M431.571 220.088H358.17C355.056 220.088 352.523 217.883 352.523 215.172C352.523 212.462 355.056 210.256 358.17 210.256H431.571C434.684 210.256 437.217 212.462 437.217 215.172C437.217 217.883 434.684 220.088 431.571 220.088Z" fill="#E6E6E6"/>
<path d="M388.118 86.3598H316.768C314.969 86.3598 313.506 85.0856 313.506 83.5195C313.506 81.9535 314.969 80.6798 316.768 80.6798H388.118C389.917 80.6798 391.38 81.9535 391.38 83.5195C391.38 85.0856 389.917 86.3598 388.118 86.3598V86.3598Z" fill="#3F3D56"/>
<path d="M426.405 116.661H278.482C276.683 116.661 275.219 115.387 275.219 113.821C275.219 112.255 276.683 110.981 278.482 110.981H426.405C428.204 110.981 429.666 112.255 429.666 113.821C429.666 115.387 428.204 116.661 426.405 116.661Z" fill="#3F3D56"/>
<path d="M32.0718 389.901C32.0718 390.412 32.5424 390.821 33.1284 390.821H496.871C497.457 390.821 497.927 390.412 497.927 389.901C497.927 389.391 497.457 388.982 496.871 388.982H33.1284C32.5424 388.982 32.0718 389.391 32.0718 389.901Z" fill="#3F3D56"/>
<path d="M145.944 171.841C145.818 171.841 145.693 171.837 145.566 171.83C138.136 171.415 112.71 168.282 97.5305 145.433C96.2796 143.552 96.5261 141.16 98.1433 139.482L126.254 110.322C127.404 109.129 129.18 108.442 130.978 108.461C132.221 108.487 135.165 108.76 135.736 110.736C139.113 122.406 153.373 136.127 170.522 137.946C172.26 138.13 173.655 139.48 174.254 141.557C174.722 143.174 174.29 144.841 173.069 146.131L150.55 169.938C149.406 171.147 147.727 171.841 145.944 171.841V171.841ZM130.87 109.634C129.497 109.634 128.161 110.17 127.287 111.076L99.1764 140.236C97.9218 141.537 97.7296 143.389 98.6972 144.845C113.542 167.191 138.391 170.252 145.653 170.659C147.136 170.745 148.56 170.195 149.509 169.192L172.029 145.385C172.975 144.386 173.309 143.095 172.947 141.843C172.594 140.618 171.728 139.256 170.359 139.11C152.643 137.232 137.915 123.068 134.429 111.022C134.147 110.047 132.447 109.666 130.95 109.635C130.924 109.634 130.897 109.634 130.87 109.634H130.87Z" fill="#3F3D56"/>
<path d="M114.566 146.393L134.833 128.402C136.218 127.172 134.048 125.279 132.661 126.511L112.394 144.501C111.008 145.731 113.179 147.624 114.566 146.393Z" fill="#E6E6E6"/>
<path d="M126.798 151.461C132.391 147.096 137.252 142.043 141.232 136.497C142.283 135.033 139.626 133.689 138.579 135.147C134.731 140.509 130.033 145.351 124.626 149.57C123.15 150.721 125.329 152.607 126.798 151.461H126.798V151.461Z" fill="#E6E6E6"/>
<path d="M137.822 157.53C142.915 152.619 147.25 147.137 150.663 141.225C151.548 139.691 148.899 138.335 148.01 139.875C144.713 145.588 140.572 150.893 135.65 155.639C134.329 156.914 136.494 158.811 137.822 157.53H137.822Z" fill="#E6E6E6"/>
<path d="M129.14 125.141C140.424 125.141 149.573 117.345 149.573 107.727C149.573 98.109 140.424 90.3123 129.14 90.3123C117.855 90.3123 108.707 98.109 108.707 107.727C108.707 117.345 117.855 125.141 129.14 125.141Z" fill="#712782"/>
<path d="M139.771 115.987C136.629 109.261 133.486 102.534 130.344 95.8073C129.91 94.8783 128.55 94.8453 128.126 95.8073C125.021 102.86 122.992 110.219 122.017 117.722C121.851 119 124.151 118.989 124.316 117.722C124.698 114.785 125.265 111.871 125.992 108.988C128.582 109.107 131.192 108.854 133.691 108.251C134.979 111.007 136.266 113.763 137.554 116.519C138.104 117.697 140.329 117.182 139.771 115.987V115.987ZM126.514 107.009C127.288 104.249 128.217 101.522 129.294 98.8386L132.818 106.382C130.754 106.854 128.643 107.063 126.514 107.009V107.009Z" fill="white"/>
</g>
<defs>
<clipPath id="clip0_103_6">
<rect width="530" height="390.822" fill="white"/>
</clipPath>
</defs>
</svg>
